# xmcd
#
# Track frame offsets: 
#        150
#        19506
#        32277
#        48915
#        60130
#        76487
#        91414
#        107673
#        118653
#        133507
#        149704
#
# Disc length: 2209 seconds
#
# Revision: 0
# Processed by: cddbd v1.5.2PL0 Copyright (c) Steve Scherf et al.
# Submitted via: ExactAudioCopyFreeDBPlugin 1.0
#
DISCID=84089f0b
DTITLE=The Inspector Cluzo - The Inspector Cluzo
DYEAR=1900
DGENRE=Blues
TTITLE0=The Inspector Cluzo
TTITLE1=Change #1
TTITLE2=Mad
TTITLE3=Fuck The Bass Player
TTITLE4=Do You Make It Right
TTITLE5=Turtulututututu
TTITLE6=Two Days
TTITLE7=Yourself
TTITLE8=US Food
TTITLE9=Yuppie Way Of Live Blues
TTITLE10=Change #2
EXTD=
EXTT0=
EXTT1=
EXTT2=
EXTT3=
EXTT4=
EXTT5=
EXTT6=
EXTT7=
EXTT8=
EXTT9=
EXTT10=
PLAYORDER=
